<svg xmlns="http://www.w3.org/2000/svg" viewBox="0 0 96.631 671.05"><path d="M526.14 37.897c-1.12 62.723-46.25 69.013-46.88 96.003-.62 26.97 13.47 28.85 18.8 28.85 5.37 0 16.64-3.93 16.29-15.68-.32-11.12-4.39-14.43 0-31.36-5.01 10.66-11.27 15.72-18.8 16.98 6.9 3.76 10.35 7.47 10.66 9.36.35 2.07-.6 11.26-8.75 11.26-8.78 0-11.62-8.39-10.05-20.62 1.64-12.85 31.95-33.879 35.09-47.051 0 26.341-1.88 103.48-1.73 100.86-2.24 80.95-9.36 132.25-9.36 205.09 0 72.5.04 140.4 7.1 249.36-14.62 3.56-25.73 16.09-25.73 31.8 0 18.46 14.99 33.45 33.44 33.45 18.46 0 33.36-14.99 33.36-33.45 0-15.74-11.08-28.27-25.73-31.8 7.06-108.96 7.1-176.86 7.1-249.36 0-72.84-7.2-124.14-9.44-205.09.15 2.62-1.73-74.52-1.73-100.86 3.13 13.171 33.53 34.2 35.18 47.05 1.56 12.23-1.27 20.62-10.06 20.62-8.15 0-9.18-9.19-8.83-11.26.31-1.89 3.75-5.6 10.65-9.36-7.52-1.26-13.78-6.32-18.8-16.98 4.39 16.93.33 20.24 0 31.36-.34 11.75 10.92 15.68 16.29 15.68 5.33 0 19.52-1.88 18.89-28.85-.63-26.99-45.85-33.28-46.96-96.003zm.08 615.79c10.55 0 19.07 8.52 19.07 19.06 0 10.55-8.52 19.15-19.07 19.15-10.54 0-19.14-8.6-19.14-19.15 0-10.54 8.6-19.06 19.14-19.06z" style="stroke-linejoin:round;fill-rule:evenodd;color:#000;stroke:#000;stroke-width:2.7508;fill:#000" transform="translate(-477.86 -36.521)"/></svg>